<svg viewBox="0 0 700 300" xmlns="http://www.w3.org/2000/svg" style="font-family: sans-serif; background-color: #0b0f19; border-radius: 8px;">
<defs>
        <linearGradient id="gradGas" x1="0%" y1="0%" x2="0%" y2="100%">
            <stop offset="0%" style="stop-color:#f97316;stop-opacity:0.4" />
            <stop offset="100%" style="stop-color:#f97316;stop-opacity:0" />
        </linearGradient>
    </defs>
  <line x1="40" y1="250.0" x2="660" y2="250.0" stroke="#1f2937" stroke-dasharray="3,3" stroke-width="1"/>
  <line x1="40" y1="183.3333333333333" x2="660" y2="183.3333333333333" stroke="#1f2937" stroke-dasharray="3,3" stroke-width="1"/>
  <line x1="40" y1="116.66666666666671" x2="660" y2="116.66666666666671" stroke="#1f2937" stroke-dasharray="3,3" stroke-width="1"/>
  <line x1="40" y1="50.0" x2="660" y2="50.0" stroke="#1f2937" stroke-dasharray="3,3" stroke-width="1"/>
  <text x="40.0" y="275" text-anchor="end" transform="rotate(-45, 40.0, 275)" font-size="11" font-weight="bold" fill="#9ca3af">13/09</text>
  <text x="143.33333333333331" y="275" text-anchor="end" transform="rotate(-45, 143.33333333333331, 275)" font-size="11" font-weight="bold" fill="#9ca3af">15/09</text>
  <text x="246.66666666666666" y="275" text-anchor="end" transform="rotate(-45, 246.66666666666666, 275)" font-size="11" font-weight="bold" fill="#9ca3af">17/09</text>
  <text x="350.0" y="275" text-anchor="end" transform="rotate(-45, 350.0, 275)" font-size="11" font-weight="bold" fill="#9ca3af">19/09</text>
  <text x="453.3333333333333" y="275" text-anchor="end" transform="rotate(-45, 453.3333333333333, 275)" font-size="11" font-weight="bold" fill="#9ca3af">21/09</text>
  <text x="556.6666666666666" y="275" text-anchor="end" transform="rotate(-45, 556.6666666666666, 275)" font-size="11" font-weight="bold" fill="#9ca3af">23/09</text>
  <text x="660.0" y="275" text-anchor="end" transform="rotate(-45, 660.0, 275)" font-size="11" font-weight="bold" fill="#9ca3af">25/09</text>
  <polygon points="40.0,250 40.0,83.15250150693188 91.66666666666666,74.11091018685957 143.33333333333331,105.5756479807113 195.0,140.05424954792048 246.66666666666666,157.29355033152498 298.3333333333333,119.31886678722125 350.0,128.4810126582278 401.6666666666667,97.13682941531042 453.3333333333333,196.8354430379747 505.0,198.2820976491863 556.6666666666666,211.30198915009046 608.3333333333334,184.418324291742 660.0,225.88908981314043 660.0,250" fill="url(#gradGas)" />
  <polyline points="40.0,83.15250150693188 91.66666666666666,74.11091018685957 143.33333333333331,105.5756479807113 195.0,140.05424954792048 246.66666666666666,157.29355033152498 298.3333333333333,119.31886678722125 350.0,128.4810126582278 401.6666666666667,97.13682941531042 453.3333333333333,196.8354430379747 505.0,198.2820976491863 556.6666666666666,211.30198915009046 608.3333333333334,184.418324291742 660.0,225.88908981314043" fill="none" stroke="#f97316" stroke-width="3" stroke-linecap="round" stroke-linejoin="round"/>
  <circle cx="40.0" cy="83.15250150693188" r="4" fill="#0b0f19" stroke="#f97316" stroke-width="2"/>
  <circle cx="91.66666666666666" cy="74.11091018685957" r="4" fill="#0b0f19" stroke="#f97316" stroke-width="2"/>
  <text x="91.66666666666666" y="62.11091018685957" text-anchor="middle" font-size="12" font-weight="bold" fill="#ffedd5">85.71</text>
  <circle cx="143.33333333333331" cy="105.5756479807113" r="4" fill="#0b0f19" stroke="#f97316" stroke-width="2"/>
  <circle cx="195.0" cy="140.05424954792048" r="4" fill="#0b0f19" stroke="#f97316" stroke-width="2"/>
  <circle cx="246.66666666666666" cy="157.29355033152498" r="4" fill="#0b0f19" stroke="#f97316" stroke-width="2"/>
  <circle cx="298.3333333333333" cy="119.31886678722125" r="4" fill="#0b0f19" stroke="#f97316" stroke-width="2"/>
  <circle cx="350.0" cy="128.4810126582278" r="4" fill="#0b0f19" stroke="#f97316" stroke-width="2"/>
  <circle cx="401.6666666666667" cy="97.13682941531042" r="4" fill="#0b0f19" stroke="#f97316" stroke-width="2"/>
  <circle cx="453.3333333333333" cy="196.8354430379747" r="4" fill="#0b0f19" stroke="#f97316" stroke-width="2"/>
  <circle cx="505.0" cy="198.2820976491863" r="4" fill="#0b0f19" stroke="#f97316" stroke-width="2"/>
  <circle cx="556.6666666666666" cy="211.30198915009046" r="4" fill="#0b0f19" stroke="#f97316" stroke-width="2"/>
  <circle cx="608.3333333333334" cy="184.418324291742" r="4" fill="#0b0f19" stroke="#f97316" stroke-width="2"/>
  <circle cx="660.0" cy="225.88908981314043" r="4" fill="#0b0f19" stroke="#f97316" stroke-width="2"/>
  <text x="660.0" y="245.88908981314043" text-anchor="middle" font-size="12" font-weight="bold" fill="#38bdf8">73.12</text>
</svg>