<svg viewBox="0 0 900 400" xmlns="http://www.w3.org/2000/svg" style="font-family: 'Inter', sans-serif; background: #0b0f19;">

    <g transform="translate(40, 15) scale(0.45)">
        <path d="M10 50 C30 90 50 10 70 70 L85 30 L95 80" stroke="#22d3ee" stroke-width="8" stroke-linecap="round" stroke-linejoin="round" fill="none"/>
        <circle cx="95" cy="80" r="6" fill="#ffffff"/>
        <text x="120" y="70" font-family="'Inter', sans-serif" font-weight="800" font-size="50" fill="#ffffff">POWER<tspan fill="#22d3ee" font-weight="300">TRADER</tspan></text>
    </g>
    
<rect x="730" y="25" width="12" height="12" fill="#facc15" rx="2"/>
<text x="750" y="35" font-size="14" font-weight="bold" fill="#e2e2e2">OMIE (€/MWh)</text>
  <line x1="50" y1="350.0" x2="850" y2="350.0" stroke="#1f2937" stroke-width="1"/>
  <text x="40" y="354.0" text-anchor="end" font-size="11" fill="#9ca3af">0</text>
  <line x1="50" y1="280.0" x2="850" y2="280.0" stroke="#1f2937" stroke-width="1"/>
  <text x="40" y="284.0" text-anchor="end" font-size="11" fill="#9ca3af">82</text>
  <line x1="50" y1="210.0" x2="850" y2="210.0" stroke="#1f2937" stroke-width="1"/>
  <text x="40" y="214.0" text-anchor="end" font-size="11" fill="#9ca3af">164</text>
  <line x1="50" y1="140.0" x2="850" y2="140.0" stroke="#1f2937" stroke-width="1"/>
  <text x="40" y="144.0" text-anchor="end" font-size="11" fill="#9ca3af">247</text>
  <line x1="50" y1="70.0" x2="850" y2="70.0" stroke="#1f2937" stroke-width="1"/>
  <text x="40" y="74.0" text-anchor="end" font-size="11" fill="#9ca3af">330</text>
  <line x1="50.0" y1="70" x2="50.0" y2="350" stroke="#1f2937" stroke-width="1" stroke-dasharray="4,4"/>
  <text x="50.0" y="375" text-anchor="end" transform="rotate(-45, 50.0, 375)" font-size="11" font-weight="bold" fill="#ffffff">10/09</text>
  <line x1="150.0" y1="70" x2="150.0" y2="350" stroke="#1f2937" stroke-width="1" stroke-dasharray="4,4"/>
  <text x="150.0" y="375" text-anchor="end" transform="rotate(-45, 150.0, 375)" font-size="11" font-weight="bold" fill="#ffffff">11/09</text>
  <line x1="250.0" y1="70" x2="250.0" y2="350" stroke="#1f2937" stroke-width="1" stroke-dasharray="4,4"/>
  <text x="250.0" y="375" text-anchor="end" transform="rotate(-45, 250.0, 375)" font-size="11" font-weight="bold" fill="#ffffff">12/09</text>
  <line x1="350.0" y1="70" x2="350.0" y2="350" stroke="#1f2937" stroke-width="1" stroke-dasharray="4,4"/>
  <text x="350.0" y="375" text-anchor="end" transform="rotate(-45, 350.0, 375)" font-size="11" font-weight="bold" fill="#ffffff">13/09</text>
  <line x1="450.0" y1="70" x2="450.0" y2="350" stroke="#1f2937" stroke-width="1" stroke-dasharray="4,4"/>
  <text x="450.0" y="375" text-anchor="end" transform="rotate(-45, 450.0, 375)" font-size="11" font-weight="bold" fill="#ffffff">14/09</text>
  <line x1="550.0" y1="70" x2="550.0" y2="350" stroke="#1f2937" stroke-width="1" stroke-dasharray="4,4"/>
  <text x="550.0" y="375" text-anchor="end" transform="rotate(-45, 550.0, 375)" font-size="11" font-weight="bold" fill="#ffffff">15/09</text>
  <line x1="650.0" y1="70" x2="650.0" y2="350" stroke="#1f2937" stroke-width="1" stroke-dasharray="4,4"/>
  <text x="650.0" y="375" text-anchor="end" transform="rotate(-45, 650.0, 375)" font-size="11" font-weight="bold" fill="#ffffff">16/09</text>
  <line x1="750.0" y1="70" x2="750.0" y2="350" stroke="#1f2937" stroke-width="1" stroke-dasharray="4,4"/>
  <text x="750.0" y="375" text-anchor="end" transform="rotate(-45, 750.0, 375)" font-size="11" font-weight="bold" fill="#ffffff">17/09</text>
  <polyline points="50.0,186.56710546224843 51.04302477183833,192.48146466939025 52.086049543676666,195.37933121500984 53.12907431551499,201.00559842638827 54.172099087353324,192.48146466939025 55.21512385919166,197.09940989559692 56.25814863102999,195.99788167650175 57.301173402868315,197.09940989559692 58.34419817470665,192.48146466939025 59.38722294654498,195.99788167650175 60.43024771838331,195.40475109698897 61.473272490221646,195.40475109698897 62.51629726205997,194.98108639733695 63.559322033898304,194.59978816765016 64.60234680573663,194.6845211075806 65.64537157757496,192.48146466939025 66.6883963494133,195.99788167650175 67.73142112125163,195.99788167650175 68.77444589308996,192.48146466939025 69.8174706649283,192.48146466939025 70.86049543676663,192.48146466939025 71.90352020860496,192.48146466939025 72.94654498044329,190.32077470116508 73.98956975228162,179.15297321833864 75.03259452411994,184.47420184596763 76.07561929595828,172.64548343168406 77.11864406779661,164.67211378423363 78.16166883963494,157.46981389014977 79.20469361147327,156.85126342865792 80.24771838331161,151.25888939325165 81.29074315514994,148.81010742926313 82.33376792698826,154.7837796943562 83.37679269882659,138.6929944015736 84.41981747066492,156.85126342865792 85.46284224250326,166.52776516870935 86.50586701434159,183.82175820850358 87.54889178617992,170.10349523377212 88.59191655801826,189.9818429414435 89.63494132985659,213.7917990618853 90.67796610169492,247.43077621425329 91.72099087353325,250.47268875775455 92.76401564537159,271.1983658647299 93.80704041720992,277.59570282947493 94.85006518904824,316.4881222575276 95.89308996088657,316.9541534271448 96.9361147327249,339.04403086699955 97.97913950456324,344.47541231653804 99.02216427640155,347.50037827205324 100.06518904823989,342.543501286125 101.10821382007822,344.4499924345589 102.15123859191655,344.47541231653804 103.19426336375489,342.4164018762294 104.23728813559322,339.36601603873504 105.28031290743155,342.1876229384173 106.32333767926988,342.755333635951 107.36636245110822,338.501740051445 108.40938722294655,340.204872144046 109.45241199478488,338.501740051445 110.49543676662321,338.501740051445 111.53846153846155,340.204872144046 112.58148631029988,339.36601603873504 113.6245110821382,339.66258132849146 114.66753585397653,340.204872144046 115.71056062581486,340.02693297019215 116.7535853976532,340.204872144046 117.79661016949153,338.63731275533365 118.83963494132986,336.90876078075354 119.88265971316818,324.19881979119384 120.92568448500651,316.4881222575276 121.96870925684485,298.77893781207445 123.01173402868318,277.4262369496141 124.05475880052151,270.3934029353911 125.09778357235984,261.0727795430473 126.14080834419818,247.91375397185655 127.18383311603651,228.06929944015738 128.22685788787484,196.99773036768045 129.26988265971318,195.99788167650175 130.31290743155148,170.10349523377212 131.35593220338984,157.77485247389924 132.39895697522815,119.14510515963082 133.4419817470665,127.0845816311091 134.4850065189048,120.83976395823879 135.52803129074317,113.65441065214102 136.57105606258148,116.59464366772585 137.61408083441984,119.66197609320625 138.65710560625814,122.48358299288847 139.70013037809647,145.04796489635345 140.7431551499348,147.94583144197307 141.78617992177314,146.51384475714934 142.82920469361147,157.77485247389924 143.8722294654498,160.52019972764413 144.91525423728814,170.10349523377212 145.95827900912647,164.67211378423363 147.0013037809648,171.0948706309578 148.0443285528031,181.85595400211832 149.08735332464147,184.38946890603722 150.13037809647977,148.4203359055833 151.17340286831814,153.63141171130277 152.21642764015644,156.85126342865792 153.2594524119948,158.09683764563474 154.3024771838331,158.67302163716147 155.34550195567147,159.81691632622181 156.38852672750977,169.95944923589045 157.4315514993481,173.7978514147375 158.47457627118644,173.7131184748071 159.51760104302477,174.331668936299 160.5606258148631,180.15282190951734 161.60365058670143,182.27114540777728 162.64667535853977,180.15282190951734 163.6897001303781,180.15282190951734 164.73272490221643,182.5168709335754 165.77574967405477,182.5168709335754 166.8187744458931,182.5168709335754 167.8617992177314,182.5168709335754 168.90482398956976,182.5168709335754 169.94784876140807,182.5168709335754 170.99087353324643,182.77954304735965 172.03389830508473,182.5168709335754 173.0769230769231,182.5168709335754 174.1199478487614,182.5168709335754 175.16297262059976,184.38946890603722 176.20599739243806,175.91617491299743 177.2490221642764,173.12846118928735 178.29204693611473,166.49387199273718 179.33507170795306,160.78287184142835 180.3780964797914,158.96958692691783 181.42112125162973,158.6814949311545 182.46414602346806,159.90164926615222 183.5071707953064,151.17415645332125 184.55019556714473,158.12225752761387 185.59322033898306,167.44288091995762 186.6362451108214,190.2190951732486 187.67926988265972,174.08594341050085 188.72229465449806,193.286427598729 189.76531942633636,229.06067483734302 190.8083441981747,261.62354365259495 191.85136897001303,269.58844000605234 192.89439374185136,281.83234982599487 193.9374185136897,316.4881222575276 194.98044328552803,316.581328491451 196.02346805736636,306.9471932213648 197.0664928292047,316.76774095929795 198.10951760104302,324.19881979119384 199.15254237288136,331.7824179149644 200.1955671447197,330.55379028597366 201.23859191655802,336.06143138144955 202.28161668839635,336.4766227871085 203.3246414602347,336.4935693750946 204.36766623207302,336.578302315025 205.41069100391135,336.51051596308065 206.45371577574969,336.51051596308065 207.49674054758802,339.560901800575 208.53976531942632,341.060674837343 209.58279009126466,338.63731275533365 210.625814863103,341.13693448328036 211.66883963494132,341.13693448328036 212.71186440677965,341.13693448328036 213.754889178618,341.13693448328036 214.79791395045632,341.13693448328036 215.84093872229465,341.13693448328036 216.88396349413298,341.13693448328036 217.92698826597132,337.5018913602663 218.97001303780965,332.5873808443032 220.01303780964798,319.9621727946739 221.05606258148632,316.4881222575276 222.09908735332465,298.77893781207445 223.14211212516298,282.67967922529886 224.1851368970013,274.1555454683008 225.22816166883965,300.4820699046754 226.27118644067798,273.35905583295505 227.31421121251628,245.27855954002118 228.35723598435462,231.83991526706006 229.40026075619295,222.51929187471632 230.44328552803128,190.2190951732486 231.48631029986961,163.78241791496444 232.52933507170795,156.40217884702676 233.57235984354628,156.85126342865792 234.6153846153846,143.13300045392646 235.65840938722295,137.78635194431834 236.70143415906128,137.7778786503253 237.7444589308996,146.25964593735816 238.78748370273794,148.15766379179908 239.83050847457628,154.3601149947042 240.8735332464146,156.85126342865792 241.91655801825294,158.96958692691783 242.95958279009128,163.20623392343774 244.0026075619296,172.56075049175365 245.04563233376794,180.15282190951734 246.08865710560625,181.83900741413225 247.13168187744458,184.8978665456196 248.1747066492829,190.2190951732486 249.21773142112124,190.52413375699805 250.26075619295958,169.45952489030108 251.3037809647979,174.0351036465426 252.34680573663624,176.49235890452414 253.38983050847457,180.9577848388561 254.4328552803129,175.17052504160992 255.47588005215124,180.9577848388561 256.5189048239896,182.5168709335754 257.5619295958279,185.2367983053412 258.6049543676662,181.87290059010442 259.64797913950457,181.36450295052202 260.69100391134293,184.38946890603722 261.73402868318124,185.2367983053412 262.77705345501954,188.4735966106824 263.8200782268579,188.77863519443184 264.8631029986962,189.8123770615827 265.90612777053457,189.8123770615827 266.9491525423729,193.286427598729 267.9921773142112,195.04039945528825 269.03520208604954,192.86276289907704 270.0782268578879,192.86276289907704 271.1212516297262,193.286427598729 272.1642764015645,192.69329701921623 273.20730117340287,191.70192162203057 274.25032594524123,189.8123770615827 275.29335071707953,188.49901649266153 276.33637548891784,187.67710697533664 277.3794002607562,185.48252383113936 278.42242503259456,187.1348161597821 279.46544980443286,183.5167196247541 280.50847457627117,182.94900892722046 281.55149934810953,187.67710697533664 282.59452411994783,191.33756998032985 283.6375488917862,179.51732486003937 284.6805736636245,189.79543047359664 285.7235984354628,213.19019518837948 286.76662320730117,240.92328642759873 287.8096479791395,240.92328642759873 288.85267275097783,259.30186109850206 289.89569752281614,281.83234982599487 290.9387222946545,341.13693448328036 291.98174706649286,344.6364049024058 293.02477183833116,348.7035860190649 294.06779661016947,349.17809048267515 295.1108213820078,349.53396883038283 296.1538461538462,349.53396883038283 297.1968709256845,349.6102284763202 298.2398956975228,349.61870177031324 299.28292046936116,349.61870177031324 300.3259452411995,349.61870177031324 301.3689700130378,349.61870177031324 302.41199478487613,349.61870177031324 303.45501955671443,349.61870177031324 304.4980443285528,349.61870177031324 305.54106910039116,349.61870177031324 306.58409387222946,349.61870177031324 307.6271186440678,349.61870177031324 308.6701434159061,349.61870177031324 309.7131681877445,349.61870177031324 310.7561929595828,349.61870177031324 311.7992177314211,349.61870177031324 312.84224250325946,349.61870177031324 313.88526727509776,349.61870177031324 314.9282920469361,349.61870177031324 315.9713168187744,349.61870177031324 317.0143415906128,349.61870177031324 318.0573663624511,349.61870177031324 319.10039113428945,349.6102284763202 320.14341590612776,349.3814495385081 321.1864406779661,348.77137237100925 322.2294654498044,348.7035860190649 323.2724902216428,348.7035860190649 324.3155149934811,346.7123619307006 325.35853976531945,348.3477076713572 326.40156453715775,316.76774095929795 327.4445893089961,272.8082917234075 328.4876140808344,245.16840671811167 329.5306388526727,245.27855954002118 330.5736636245111,214.41034952337722 331.6166883963494,187.67710697533664 332.65971316818775,168.6037221970041 333.70273794002605,170.84067181116657 334.7457627118644,170.6881525192919 335.7887874837027,170.89998486911787 336.8318122555411,173.63685882886972 337.8748370273794,171.04403086699955 338.91786179921775,175.96701467695567 339.96088657105605,178.50052958087457 341.0039113428944,182.5507641095476 342.0469361147327,179.3563322741716 343.0899608865711,181.06793766076564 344.1329856584094,180.66121954909968 345.17601043024774,184.30473596610682 346.21903520208605,184.1522166742321 347.2620599739244,187.67710697533664 348.3050847457627,188.62611590255713 349.348109517601,190.74443940081707 350.3911342894394,176.33983961264943 351.4341590612777,180.15282190951734 352.47718383311604,181.0170978968074 353.52020860495435,180.5764866091693 354.5632333767927,182.94900892722046 355.606258148631,184.22000302617644 356.6492829204694,184.22000302617644 357.6923076923077,188.62611590255713 358.73533246414604,184.22000302617644 359.77835723598434,184.4403086699955 360.8213820078227,188.62611590255713 361.864406779661,189.23619307005598 362.90743155149937,188.62611590255713 363.9504563233377,191.91375397185655 364.99348109517604,202.18338629142082 366.03650586701434,202.46300499319113 367.07953063885265,203.92041155999397 368.122555410691,204.86094719322136 369.1655801825293,205.1236193070056 370.2086049543677,205.5642305946437 371.251629726206,202.36979875926767 372.29465449804434,199.55666515357845 373.33767926988264,194.61673475563626 374.380704041721,188.62611590255713 375.4237288135593,197.08246330761082 376.46675358539767,189.23619307005598 377.509778357236,189.23619307005598 378.55280312907433,189.04978060220913 379.59582790091264,189.79543047359664 380.638852672751,189.1345135421395 381.6818774445893,188.62611590255713 382.72490221642767,186.18580723256167 383.76792698826597,188.54138296262673 384.81095176010433,202.55621122711455 385.85397653194264,214.23241034952338 386.89700130378094,235.229232864276 387.9400260756193,227.6880012104706 388.9830508474576,256.4124678468755 390.02607561929597,304.7102436072023 391.06910039113427,346.7123619307006 392.11212516297263,348.7035860190649 393.15514993481094,349.44076259645936 394.1981747066493,349.61870177031324 395.2411994784876,349.61870177031324 396.28422425032596,349.62717506430624 397.32724902216427,349.6780148282645 398.3702737940026,349.779694356181 399.41329856584093,349.8729005901044 400.4563233376793,349.8729005901044 401.4993481095176,350.0423664699652 402.54237288135596,349.8729005901044 403.58539765319426,349.75427447420185 404.62842242503257,349.6356483582993 405.67144719687093,349.62717506430624 406.71447196870923,349.62717506430624 407.7574967405476,349.62717506430624 408.8005215123859,349.62717506430624 409.84354628422426,349.62717506430624 410.88657105606256,349.62717506430624 411.9295958279009,349.62717506430624 412.97262059973923,349.62717506430624 414.0156453715776,349.62717506430624 415.0586701434159,349.62717506430624 416.10169491525426,349.62717506430624 417.14471968709256,349.62717506430624 418.1877444589309,349.61870177031324 419.2307692307692,349.61870177031324 420.2737940026076,349.61870177031324 421.3168187744459,349.6102284763202 422.3598435462842,349.44076259645936 423.40286831812256,349.18656377666815 424.44589308996086,348.60190649114844 425.4889178617992,343.2552579815403 426.5319426336375,293.9406869420487 427.5749674054759,260.3101830836738 428.6179921773142,237.34755636253595 429.66101694915255,239.4658798607959 430.70404172099086,184.4403086699955 431.7470664928292,168.71387501891363 432.7900912646675,156.85126342865792 433.8331160365059,155.74973520956271 434.8761408083442,150.49629293387807 435.91916558018255,148.352549553639 436.96219035202085,151.35209562717506 438.0052151238592,150.21667423210772 439.0482398956975,150.49629293387807 440.0912646675359,153.33484642154636 441.1342894393742,156.85126342865792 442.1773142112125,152.67392949008928 443.22033898305085,156.85126342865792 444.26336375488916,156.85126342865792 445.3063885267275,161.16417007111514 446.3494132985658,162.7571493418066 447.3924380704042,172.8827356634892 448.4354628422425,174.0181570585565 449.47848761408085,175.06884551369347 450.52151238591915,164.748373430171 451.5645371577575,166.44303222877892 452.6075619295958,167.01921622030565 453.6505867014342,167.01921622030565 454.6936114732725,169.56120441821759 455.73663624511084,169.98486911786958 456.77966101694915,173.34876683310637 457.8226857887875,176.42457255257983 458.8657105606258,177.51762747768194 459.9087353324641,177.51762747768194 460.9517601043025,177.51762747768194 461.9947848761408,177.51762747768194 463.03780964797915,180.15282190951734 464.08083441981745,180.15282190951734 465.1238591916558,180.15282190951734 466.1668839634941,178.9326675745196 467.2099087353325,180.0003026176426 468.2529335071708,177.59388712361928 469.29595827900914,177.59388712361928 470.33898305084745,176.42457255257983 471.3820078226858,177.66167347556365 472.4250325945241,177.66167347556365 473.4680573663625,172.89120895748223 474.5110821382008,166.34135270086247 475.55410691003914,165.54486306551672 476.59713168187744,159.7321833862914 477.6401564537158,149.51339083068544 478.6831812255541,144.59888031472235 479.7262059973924,144.53109396277802 480.7692307692308,135.6680284460584 481.8122555410691,129.31305795127855 482.85528031290744,124.60190649114841 483.89830508474574,103.89317597215918 484.9413298565841,116.11166591012255 485.9843546284224,124.68663943107885 487.02737940026077,156.85126342865792 488.0704041720991,129.31305795127855 489.11342894393744,156.85126342865792 490.15645371577574,176.81434407625966 491.1994784876141,214.9780602209109 492.2425032594524,214.60523528521713 493.28552803129077,240.92328642759873 494.32855280312907,248.6678771372371 495.37157757496743,263.14026327734905 496.41460234680574,278.2311998789529 497.45762711864404,298.77893781207445 498.5006518904824,307.2522318051142 499.5436766623207,311.4804055076411 500.58670143415907,311.4804055076411 501.6297262059974,313.04796489635345 502.67275097783573,315.2764412165229 503.71577574967404,311.4804055076411 504.7588005215124,307.2522318051142 505.8018252933507,307.2522318051142 506.84485006518906,311.4804055076411 507.88787483702737,311.4804055076411 508.93089960886573,310.15009835073386 509.97392438070403,307.2522318051142 511.0169491525424,307.2522318051142 512.0599739243808,307.2522318051142 513.1029986962191,300.4820699046754 514.1460234680574,298.77893781207445 515.1890482398957,294.54229081555457 516.232073011734,294.54229081555457 517.2750977835724,290.30564381903463 518.3181225554107,283.5270086246028 519.361147327249,278.2311998789529 520.4041720990874,273.35905583295505 521.4471968709256,269.1139355424421 522.490221642764,256.4124678468755 523.5332464146023,248.5577243153276 524.5762711864406,237.34755636253595 525.619295958279,235.89862308972613 526.6623207301174,208.42820396429113 527.7053455019557,176.5431986684824 528.7483702737941,162.97745498562566 529.7913950456323,169.98486911786958 530.8344198174707,159.81691632622181 531.877444589309,139.22681192313513 532.9204693611473,95.41988197911937 533.9634941329857,108.12134967468603 535.0065189048239,95.41988197911937 536.0495436766623,95.41988197911937 537.0925684485006,95.41988197911937 538.1355932203389,95.41988197911937 539.1786179921774,95.75034044484792 540.2216427640157,122.48358299288847 541.264667535854,138.7946739294901 542.3076923076924,123.37327886215766 543.3507170795306,137.7778786503253 544.393741851369,144.43788772885458 545.4367666232073,159.24920562868817 546.4797913950456,148.04751096988957 547.522816166884,158.96958692691783 548.5658409387223,163.95188379482525 549.6088657105606,167.01921622030565 550.651890482399,157.0715690724769 551.6949152542372,157.4867604781359 552.7379400260756,158.96111363292482 553.780964797914,159.81691632622181 554.8239895697523,158.96958692691783 555.8670143415907,163.52821909517326 556.9100391134289,163.63837191708276 557.9530638852673,166.7989105764866 558.9960886571056,166.7989105764866 560.0391134289439,168.1376910273869 561.0821382007823,168.18853079134513 562.1251629726206,168.2647904372825 563.1681877444589,168.1376910273869 564.2112125162972,168.18853079134513 565.2542372881356,168.18853079134513 566.297262059974,168.18853079134513 567.3402868318123,168.98502042669085 568.3833116036506,168.98502042669085 569.426336375489,168.98502042669085 570.4693611473273,168.98502042669085 571.5123859191656,169.7815100620366 572.5554106910039,169.4764714782872 573.5984354628422,168.98502042669085 574.6414602346806,166.0702072930852 575.6844850065189,160.3422605537903 576.7275097783572,153.71614465123318 577.7705345501955,151.35209562717506 578.8135593220339,141.1756695415343 579.8565840938722,153.05522771977607 580.8996088657105,148.572855197458 581.9426336375489,138.7946739294901 582.9856584093873,143.0567408079891 584.0286831812256,122.48358299288847 585.0717079530639,144.98017854440917 586.1147327249022,158.96111363292482 587.1577574967406,181.9576335300348 588.2007822685789,156.85126342865792 589.2438070404172,169.4764714782872 590.2868318122555,188.86336813436225 591.3298565840938,214.90180057497352 592.3728813559322,204.08987743985477 593.4159061277705,240.31320926009988 594.4589308996088,241.13511877742474 595.5019556714471,254.66696928430926 596.5449804432856,268.78347707671355 597.5880052151239,273.6556211227114 598.6310299869622,277.59570282947493 599.6740547588005,289.2973218338629 600.7170795306389,291.1444999243456 601.7601043024772,303.03253139658045 602.8031290743155,307.2437585111212 603.8461538461538,307.2522318051142 604.8891786179922,315.4289605083976 605.9322033898305,316.581328491451 606.9752281616688,316.9541534271448 608.0182529335071,319.39446209714026 609.0612777053454,308.9468906037222 610.1043024771839,307.2437585111212 611.1473272490222,307.18444545316993 612.1903520208605,306.4049024058103 613.2333767926988,297.3808443032229 614.2764015645372,299.2788621576638 615.3194263363755,307.2437585111212 616.3624511082138,307.2522318051142 617.4054758800521,302.2190951732486 618.4485006518905,294.54229081555457 619.4915254237288,286.06899682251475 620.5345501955671,278.2311998789529 621.5775749674054,273.44378877288545 622.6205997392439,269.12240883643517 623.6636245110822,264.8857618399153 624.7066492829205,252.1758208503556 625.7496740547588,248.7780299591466 626.7926988265971,240.5674080798911 627.8357235984355,214.0459978816765 628.8787483702738,182.94900892722046 629.9217731421121,204.08987743985477 630.9647979139504,170.57799969738235 632.0078226857888,158.12225752761387 633.0508474576271,135.90528067786352 634.0938722294654,137.7778786503253 635.1368970013037,135.90528067786352 636.1799217731422,141.23498259948553 637.2229465449805,147.36117415645336 638.2659713168188,153.63141171130277 639.3089960886571,157.6646996519897 640.3520208604955,160.282947495839 641.3950456323338,173.3741867150855 642.4380704041721,169.1544863065517 643.4810951760104,176.96686336813437 644.5241199478488,180.15282190951734 645.5671447196871,190.31230140717204 646.6101694915254,184.18610985020425 647.6531942633637,190.87153881071268 648.696219035202,196.53169919806325 649.7392438070405,204.68300801936755 650.7822685788788,194.9471932213648 651.8252933507171,197.87895294295657 652.8683181225554,201.68346194583145 653.9113428943938,204.82705401724922 654.9543676662321,202.69178393100316 655.9973924380704,204.82705401724922 657.0404172099087,204.82705401724922 658.0834419817471,205.5642305946437 659.1264667535854,207.47919503707067 660.1694915254237,207.35209562717506 661.212516297262,205.34392495082463 662.2555410691004,206.25056740807992 663.2985658409387,208.41125737630503 664.341590612777,209.85171735512182 665.3846153846154,209.80935088515662 666.4276401564537,210.74988651838402 667.4706649282921,207.22499621727948 668.5136897001304,208.58072325616587 669.5567144719687,216.9777576032683 670.599739243807,214.7492812830988 671.6427640156454,207.9960659706461 672.6857887874837,205.40323800877593 673.728813559322,204.82705401724922 674.7718383311603,204.82705401724922 675.8148631029987,203.53911333030717 676.857887874837,204.82705401724922 677.9009126466754,199.21773339385686 678.9439374185137,189.79543047359664 679.9869621903521,188.62611590255713 681.0299869621904,184.72840066575884 682.0730117340287,184.2369496141625 683.116036505867,183.44045997881676 684.1590612777053,183.44045997881676 685.2020860495437,185.03343924950826 686.245110821382,202.68331063701015 687.2881355932203,241.44863065516722 688.3311603650586,240.02511726433653 689.374185136897,251.43017097896808 690.4172099087353,281.83234982599487 691.4602346805736,331.257073687396 692.503259452412,331.257073687396 693.5462842242504,344.6364049024058 694.5893089960887,347.237706158269 695.632333767927,348.7035860190649 696.6753585397653,348.7035860190649 697.7183833116037,349.18656377666815 698.761408083442,349.2458768346195 699.8044328552803,349.53396883038283 700.8474576271186,349.6102284763202 701.8904823989569,349.6102284763202 702.9335071707953,349.6102284763202 703.9765319426336,349.6102284763202 705.019556714472,349.6102284763202 706.0625814863103,349.6102284763202 707.1056062581487,349.6102284763202 708.148631029987,349.61870177031324 709.1916558018253,349.61870177031324 710.2346805736636,349.61870177031324 711.277705345502,349.61870177031324 712.3207301173403,349.6102284763202 713.3637548891786,349.61870177031324 714.4067796610169,349.61870177031324 715.4498044328553,349.6102284763202 716.4928292046936,349.6102284763202 717.5358539765319,349.6102284763202 718.5788787483702,349.3814495385081 719.6219035202087,349.17809048267515 720.664928292047,348.77137237100925 721.7079530638853,348.7035860190649 722.7509778357236,347.96640944167046 723.7940026075619,345.2973218338629 724.8370273794003,344.47541231653804 725.8800521512386,348.7035860190649 726.9230769230769,338.9847178090483 727.9661016949152,316.9541534271448 729.0091264667536,272.8082917234075 730.0521512385919,273.35905583295505 731.0951760104302,248.7780299591466 732.1382007822685,239.4658798607959 733.181225554107,196.8452110758057 734.2242503259453,197.09940989559692 735.2672750977836,185.03343924950826 736.3102998696219,183.44045997881676 737.3533246414603,183.38962021485852 738.3963494132986,183.44045997881676 739.4393741851369,184.2369496141625 740.4823989569752,185.03343924950826 741.5254237288135,188.91420789832046 742.5684485006519,201.5648358299289 743.6114732724902,206.42850658193373 744.6544980443285,220.82463307610834 745.6975228161668,222.51929187471632 746.7405475880053,220.82463307610834 747.7835723598436,222.51929187471632 748.8265971316819,235.229232864276 749.8696219035202,241.44863065516722 750.9126466753586,189.83779694356184 751.9556714471969,199.64139809350888 752.9986962190352,206.22514752610078 754.0417209908735,214.0459978816765 755.0847457627119,212.30897261310332 756.1277705345502,217.9606597064609 757.1707953063885,218.1131789983356 758.2138200782268,221.392343773642 759.2568448500651,223.04463610228476 760.2998696219036,231.74670903313663 761.3428943937419,239.45740656680286 762.3859191655802,242.8551974580118 763.4289439374185,243.05008321985173 764.4719687092569,243.4059615675594 765.5149934810952,243.4059615675594 766.5580182529335,243.4059615675594 767.6010430247718,243.05008321985173 768.6440677966102,242.81283098804658 769.6870925684485,239.4658798607959 770.7301173402868,230.99258586775608 771.7731421121251,237.72038129822968 772.8161668839635,235.229232864276 773.8591916558019,226.7559388712362 774.9022164276402,222.51929187471632 775.9452411994785,209.17385383567864 776.9882659713168,192.43909819942502 778.0312907431552,188.0584052050235 779.0743155149935,186.71962475412317 780.1173402868318,185.38084430322286 781.1603650586701,179.58511121198367 782.2033898305085,171.51006203661674 783.2464146023468,175.91617491299743 784.2894393741851,166.663337872598 785.3324641460234,175.95854138296264 786.3754889178618,184.38946890603722 787.4185136897001,201.3360568921168 788.4615384615385,180.15282190951734 789.5045632333768,197.09940989559692 790.5475880052152,218.1131789983356 791.5906127770535,243.82115297321832 792.6336375488918,248.4984112573763 793.6766623207301,263.53003480102893 794.7196870925684,278.3921924648207 795.7627118644068,311.9210167952792 796.8057366362451,328.2660009078529 797.8487614080834,344.47541231653804 798.8917861799217,348.33076108337116 799.9348109517601,348.7035860190649 800.9778357235984,348.77137237100925 802.0208604954368,349.18656377666815 803.063885267275,349.18656377666815 804.1069100391135,348.77137237100925 805.1499348109518,348.72900590104405 806.1929595827901,348.7035860190649 807.2359843546284,348.7035860190649 808.2790091264668,348.7035860190649 809.3220338983051,348.7035860190649 810.3650586701434,348.7035860190649 811.4080834419817,348.69511272507185 812.4511082138201,348.64427296111364 813.4941329856584,348.3477076713572 814.5371577574967,347.237706158269 815.580182529335,341.5860190649115 816.6232073011734,338.42548040550764 817.6662320730118,338.9847178090483 818.7092568448501,329.2827961870177 819.7522816166884,317.5472840066576 820.7953063885267,311.44651233166894 821.8383311603651,293.2967165985777 822.8813559322034,273.10485701316384 823.9243807040417,257.85292782569223 824.96740547588,243.61779391738537 826.0104302477184,243.4059615675594 827.0534550195567,214.0459978816765 828.096479791395,188.73626872446664 829.1395045632333,171.51006203661674 830.1825293350718,196.25208049629293 831.2255541069101,179.7206839158723 832.2685788787484,163.93493720683918 833.3116036505867,142.77712210621877 834.354628422425,159.35088515660462 835.3976531942634,161.82508700257225 836.4406779661017,161.0709638371917 837.48370273794,163.68073838704797 838.5267275097783,158.12225752761387 839.5697522816167,158.96958692691783 840.612777053455,168.62066878499016 841.6558018252933,171.79815403238007 842.6988265971316,171.51006203661674 843.7418513689701,179.20381298229688 844.7848761408084,181.0001513088213 845.8279009126467,186.48237252231806 846.870925684485,185.38084430322286 847.9139504563234,187.03313663186566 848.9569752281617,188.62611590255713 850.0,192.86276289907704" fill="none" stroke="#facc15" stroke-width="2" stroke-linejoin="round"/>
</svg>